<svg width="690" height="336" viewBox="0 0 690 336" class="keymap" xmlns="http://www.w3.org/2000/svg" xmlns:xlink="http://www.w3.org/1999/xlink">
<style>/* inherit to force styles through use tags */
svg path {
    fill: inherit;
}

/* font and background color specifications */
svg.keymap {
    font-family: SFMono-Regular,Consolas,Liberation Mono,Menlo,monospace;
    font-size: 14px;
    font-kerning: normal;
    text-rendering: optimizeLegibility;
    fill: #24292e;
}

/* default key styling */
rect.key {
    fill: #f6f8fa;
}

rect.key, rect.combo {
    stroke: #c9cccf;
    stroke-width: 1;
}

/* default key side styling, only used is draw_key_sides is set */
rect.side {
    filter: brightness(90%);
}

/* color accent for combo boxes */
rect.combo, rect.combo-separate {
    fill: #cdf;
}

/* color accent for held keys */
rect.held, rect.combo.held {
    fill: #fdd;
}

/* color accent for ghost (optional) keys */
rect.ghost, rect.combo.ghost {
    stroke-dasharray: 4, 4;
    stroke-width: 2;
}

text {
    text-anchor: middle;
    dominant-baseline: middle;
}

/* styling for layer labels */
text.label {
    font-weight: bold;
    text-anchor: start;
    stroke: white;
    stroke-width: 4;
    paint-order: stroke;
}

/* styling for optional footer */
text.footer {
    text-anchor: end;
    dominant-baseline: auto;
    stroke: white;
    stroke-width: 4;
    paint-order: stroke;
}

/* styling for combo tap, and key non-tap label text */
text.combo, text.hold, text.shifted, text.left, text.right, text.tl, text.tr, text.bl, text.br {
    font-size: 11px;
}

text.hold, text.bl, text.br {
    text-anchor: middle;
    dominant-baseline: auto;
}

text.shifted, text.tl, text.tr {
    text-anchor: middle;
    dominant-baseline: hanging;
}

text.left, text.tl, text.bl {
    text-anchor: start;
}

text.right, text.tr, text.br {
    text-anchor: end;
}

text.layer-activator {
    text-decoration: underline;
}

/* styling for hold/shifted label text in combo box */
text.combo.hold, text.combo.shifted, text.combo.left, text.combo.right {
    font-size: 8px;
}

/* lighter symbol for transparent keys */
text.trans {
    fill: #7b7e81;
}

/* styling for combo dendrons */
path.combo {
    stroke-width: 1;
    stroke: gray;
    fill: none;
}

/* Start Tabler Icons Cleanup */
/* cannot use height/width with glyphs */
.icon-tabler > path {
    fill: inherit;
    stroke: inherit;
    stroke-width: 2;
}
/* hide tabler's default box */
.icon-tabler > path[stroke="none"][fill="none"] {
    visibility: hidden;
}
/* End Tabler Icons Cleanup */
</style>
<g transform="translate(30, 0)" class="layer-Mouse">
<text x="0" y="28" class="label" id="Mouse">Mouse:</text>
<g transform="translate(0, 56)">
<g transform="translate(30, 28)" class="key keypos-0">
<rect rx="6" ry="6" x="-28" y="-26" width="56" height="52" class="key"/>
</g>
<g transform="translate(90, 28)" class="key keypos-1">
<rect rx="6" ry="6" x="-28" y="-26" width="56" height="52" class="key"/>
</g>
<g transform="translate(150, 28)" class="key keypos-2">
<rect rx="6" ry="6" x="-28" y="-26" width="56" height="52" class="key"/>
</g>
<g transform="translate(210, 28)" class="key keypos-3">
<rect rx="6" ry="6" x="-28" y="-26" width="56" height="52" class="key"/>
</g>
<g transform="translate(270, 28)" class="key keypos-4">
<rect rx="6" ry="6" x="-28" y="-26" width="56" height="52" class="key"/>
</g>
<g transform="translate(360, 28)" class="key keypos-5">
<rect rx="6" ry="6" x="-28" y="-26" width="56" height="52" class="key"/>
<text x="0" y="0" class="key tap">⌘X</text>
</g>
<g transform="translate(420, 28)" class="key keypos-6">
<rect rx="6" ry="6" x="-28" y="-26" width="56" height="52" class="key"/>
<text x="0" y="0" class="key tap">⌘C</text>
</g>
<g transform="translate(480, 28)" class="key keypos-7">
<rect rx="6" ry="6" x="-28" y="-26" width="56" height="52" class="key"/>
<text x="0" y="0" class="key tap">🖱↑</text>
</g>
<g transform="translate(540, 28)" class="key keypos-8">
<rect rx="6" ry="6" x="-28" y="-26" width="56" height="52" class="key"/>
<text x="0" y="0" class="key tap">⇧⌘Z</text>
</g>
<g transform="translate(600, 28)" class="key keypos-9">
<rect rx="6" ry="6" x="-28" y="-26" width="56" height="52" class="key"/>
<text x="0" y="0" class="key tap">⌘Z</text>
</g>
<g transform="translate(30, 84)" class="key keypos-10">
<rect rx="6" ry="6" x="-28" y="-26" width="56" height="52" class="key"/>
<text x="0" y="0" class="key tap">⇧</text>
</g>
<g transform="translate(90, 84)" class="key keypos-11">
<rect rx="6" ry="6" x="-28" y="-26" width="56" height="52" class="key"/>
<text x="0" y="0" class="key tap">⌃</text>
</g>
<g transform="translate(150, 84)" class="key keypos-12">
<rect rx="6" ry="6" x="-28" y="-26" width="56" height="52" class="key"/>
<text x="0" y="0" class="key tap">⌥</text>
</g>
<g transform="translate(210, 84)" class="key keypos-13">
<rect rx="6" ry="6" x="-28" y="-26" width="56" height="52" class="key"/>
<text x="0" y="0" class="key tap">⌘</text>
</g>
<g transform="translate(270, 84)" class="key keypos-14">
<rect rx="6" ry="6" x="-28" y="-26" width="56" height="52" class="key"/>
<text x="0" y="0" class="key tap">Tab</text>
</g>
<g transform="translate(360, 84)" class="key keypos-15">
<rect rx="6" ry="6" x="-28" y="-26" width="56" height="52" class="key"/>
<text x="0" y="0" class="key tap">⌘V</text>
</g>
<g transform="translate(420, 84)" class="key keypos-16">
<rect rx="6" ry="6" x="-28" y="-26" width="56" height="52" class="key"/>
<text x="0" y="0" class="key tap">🖱←</text>
</g>
<g transform="translate(480, 84)" class="key keypos-17">
<rect rx="6" ry="6" x="-28" y="-26" width="56" height="52" class="key"/>
<text x="0" y="0" class="key tap">🖱↓</text>
</g>
<g transform="translate(540, 84)" class="key keypos-18">
<rect rx="6" ry="6" x="-28" y="-26" width="56" height="52" class="key"/>
<text x="0" y="0" class="key tap">🖱→</text>
</g>
<g transform="translate(600, 84)" class="key keypos-19">
<rect rx="6" ry="6" x="-28" y="-26" width="56" height="52" class="key"/>
</g>
<g transform="translate(30, 140)" class="key keypos-20">
<rect rx="6" ry="6" x="-28" y="-26" width="56" height="52" class="key"/>
</g>
<g transform="translate(90, 140)" class="key keypos-21">
<rect rx="6" ry="6" x="-28" y="-26" width="56" height="52" class="key"/>
<text x="0" y="0" class="key tap">slow</text>
</g>
<g transform="translate(150, 140)" class="key keypos-22">
<rect rx="6" ry="6" x="-28" y="-26" width="56" height="52" class="key"/>
<text x="0" y="0" class="key tap">med</text>
</g>
<g transform="translate(210, 140)" class="key keypos-23">
<rect rx="6" ry="6" x="-28" y="-26" width="56" height="52" class="key"/>
<text x="0" y="0" class="key tap">fast</text>
</g>
<g transform="translate(270, 140)" class="key keypos-24">
<rect rx="6" ry="6" x="-28" y="-26" width="56" height="52" class="key"/>
</g>
<g transform="translate(360, 140)" class="key keypos-25">
<rect rx="6" ry="6" x="-28" y="-26" width="56" height="52" class="key"/>
</g>
<g transform="translate(420, 140)" class="key keypos-26">
<rect rx="6" ry="6" x="-28" y="-26" width="56" height="52" class="key"/>
<text x="0" y="0" class="key tap">≣←</text>
</g>
<g transform="translate(480, 140)" class="key keypos-27">
<rect rx="6" ry="6" x="-28" y="-26" width="56" height="52" class="key"/>
<text x="0" y="0" class="key tap">≣↓</text>
</g>
<g transform="translate(540, 140)" class="key keypos-28">
<rect rx="6" ry="6" x="-28" y="-26" width="56" height="52" class="key"/>
<text x="0" y="0" class="key tap">≣↑</text>
</g>
<g transform="translate(600, 140)" class="key keypos-29">
<rect rx="6" ry="6" x="-28" y="-26" width="56" height="52" class="key"/>
<text x="0" y="0" class="key tap">≣→</text>
</g>
<g transform="translate(210, 196)" class="key keypos-30">
<rect rx="6" ry="6" x="-28" y="-26" width="56" height="52" class="key"/>
</g>
<g transform="translate(270, 196)" class="key held keypos-31">
<rect rx="6" ry="6" x="-28" y="-26" width="56" height="52" class="key held"/>
</g>
<g transform="translate(360, 196)" class="key keypos-32">
<rect rx="6" ry="6" x="-28" y="-26" width="56" height="52" class="key"/>
<text x="0" y="0" class="key tap">L-clk</text>
</g>
<g transform="translate(420, 196)" class="key keypos-33">
<rect rx="6" ry="6" x="-28" y="-26" width="56" height="52" class="key"/>
<text x="0" y="0" class="key tap">R-clk</text>
</g>
</g>
</g>
</svg>
